<?xml version="1.0" encoding="UTF-8" standalone="no"?>
<svg
   xmlns:dc="http://purl.org/dc/elements/1.1/"
   xmlns:cc="http://creativecommons.org/ns#"
   xmlns:rdf="http://www.w3.org/1999/02/22-rdf-syntax-ns#"
   xmlns:svg="http://www.w3.org/2000/svg"
   xmlns="http://www.w3.org/2000/svg"
   id="svg4298"
   version="1.1"
   viewBox="0 0 81.929802 181.08505"
   height="181.08505mm"
   width="81.929802mm">
  <defs
     id="defs4292" />
  <metadata
     id="metadata4295">
    <rdf:RDF>
      <cc:Work
         rdf:about="">
        <dc:format>image/svg+xml</dc:format>
        <dc:type
           rdf:resource="http://purl.org/dc/dcmitype/StillImage" />
        <dc:title></dc:title>
      </cc:Work>
    </rdf:RDF>
  </metadata>
  <g
     transform="translate(-71.425029,-59.802705)"
     id="layer1">
    <g
       id="g4325">
      <path
         id="path1392"
         style="fill:#040606;fill-opacity:1;fill-rule:nonzero;stroke:none;stroke-width:0.54360336"
         d="m 133.89651,240.88776 c -1.57544,0 -2.8561,-1.27742 -2.8561,-2.85379 V 226.83023 H 77.136679 v 11.20374 c 0,1.57637 -1.27805,2.85379 -2.856104,2.85379 -1.577535,0 -2.855546,-1.27742 -2.855546,-2.85379 v -14.05768 c 0,-1.57636 1.278041,-2.85934 2.855546,-2.85934 h 59.615935 c 1.57806,0 2.8561,1.28359 2.8561,2.85934 v 14.05768 c 0,1.57637 -1.27743,2.85379 -2.8561,2.85379" />
      <path
         id="path1394"
         style="fill:#040606;fill-opacity:1;fill-rule:nonzero;stroke:none;stroke-width:0.54360336"
         d="M 85.063489,221.11695 H 123.11359 V 205.5373 c 0,-0.54395 0.15409,-1.07094 0.44379,-1.52706 l 7.36422,-11.63304 c 1.94711,-3.06597 2.96212,-6.64831 2.9387,-10.34483 l -0.24809,-39.78093 c -0.0154,-3.55506 -2.92837,-6.51779 -6.4765,-6.6047 -1.69224,-0.0925 -3.25135,0.55473 -4.41675,1.70688 -1.17264,1.14645 -1.81135,2.7017 -1.79887,4.38146 l 0.13868,21.17875 c 0.0151,2.19073 -1.30054,4.07698 -3.35459,4.80552 -2.10422,0.75043 -4.36833,0.0925 -5.77572,-1.66342 L 94.630429,144.49657 c -2.84958,-3.56601 -2.60115,-8.72486 -0.86214,-12.31814 v -20.59166 l -12.20336,15.51447 c -3.42524,4.5391 -4.9283,10.27411 -4.20639,16.09618 l 7.6909,61.98701 c 0.013,0.12327 0.0216,0.23422 0.0216,0.35287 z m 40.906201,5.71328 H 82.207409 c -1.57754,0 -2.85555,-1.27742 -2.85555,-2.85394 v -18.26502 l -7.672424,-61.80765 c -0.904521,-7.31152 0.995899,-14.51426 5.355584,-20.28733 l 17.33768,-22.04855 c 0.75397,-0.95676 2.03254,-1.32643 3.179,-0.93504 1.1486,0.40234 1.92164,1.48407 1.92164,2.70172 v 29.54479 c 0,0.5008 -0.12944,0.98927 -0.37784,1.42381 -1.22534,2.12555 -1.22965,5.09352 -0.0147,6.61025 l 16.246131,20.26006 -0.12019,-19.40114 c -0.02,-3.23995 1.22473,-6.26232 3.51227,-8.4965 2.28473,-2.23973 5.35933,-3.40297 8.56337,-3.34319 6.59762,0.16797 11.99994,5.68062 12.04247,12.28547 l 0.24809,39.78078 c 0.0308,4.79458 -1.29284,9.44246 -3.82426,13.43792 l -6.92275,10.92638 v 17.61275 c 0,1.57651 -1.28051,2.85394 -2.8561,2.85394" />
      <path
         id="path1396"
         style="fill:#040606;fill-opacity:1;fill-rule:nonzero;stroke:none;stroke-width:0.54360336"
         d="m 115.86463,130.11236 c -1.09159,0 -2.13204,-0.62561 -2.60552,-1.68515 -0.60774,-1.34831 -0.9133,-2.77243 -0.9133,-4.24555 0,-5.9361 5.05382,-10.76335 11.26667,-10.76335 6.21346,0 11.26738,4.82725 11.26738,10.76335 0,1.57636 -1.27588,2.85933 -2.8561,2.85933 -1.57544,0 -2.8561,-1.28359 -2.8561,-2.85933 0,-2.78322 -2.49306,-5.05007 -5.55518,-5.05007 -3.06366,0 -5.55456,2.26685 -5.55456,5.05007 0,0.65797 0.13868,1.299 0.40988,1.90797 0.64565,1.4346 0.002,3.12576 -1.43614,3.77264 -0.38061,0.16796 -0.77662,0.24963 -1.16802,0.24963" />
      <path
         id="path1398"
         style="fill:#040606;fill-opacity:1;fill-rule:nonzero;stroke:none;stroke-width:0.54360336"
         d="m 123.61254,103.66604 c -1.57744,0 -2.85548,-1.28282 -2.85548,-2.85935 V 90.499983 c 0,-1.57646 1.27742,-2.85393 2.85548,-2.85393 1.58037,0 2.8561,1.27743 2.8561,2.85393 v 10.306707 c 0,1.57646 -1.27588,2.85935 -2.8561,2.85935" />
      <path
         id="path1400"
         style="fill:#040606;fill-opacity:1;fill-rule:nonzero;stroke:none;stroke-width:0.54360336"
         d="m 106.72936,157.87424 c -1.57809,0 -2.8561,-1.27742 -2.8561,-2.85394 V 86.091353 c 0,-1.18512 0.73656,-2.25051 1.84934,-2.66909 4.30207,-1.62538 7.99694,-4.36514 10.67904,-7.93118 0.53778,-0.7176 1.38529,-1.14151 2.28041,-1.14151 h 9.8616 c 0.89836,0 1.7454,0.42406 2.28257,1.14151 2.68213,3.56604 6.3748,6.3058 10.67859,7.93118 1.11255,0.41851 1.84757,1.48406 1.84757,2.66909 V 128.5739 c 0,1.57652 -1.27588,2.85395 -2.85595,2.85395 -1.57544,0 -2.8561,-1.27743 -2.8561,-2.85395 V 87.999403 c -4.0836,-1.84826 -7.6573,-4.5554 -10.47688,-7.93661 h -7.10119 c -2.81743,3.38121 -6.39382,6.08835 -10.47682,7.93661 V 155.0203 c 0,1.57636 -1.2785,2.85394 -2.85608,2.85394" />
      <path
         id="path1402"
         style="fill:#040606;fill-opacity:1;fill-rule:nonzero;stroke:none;stroke-width:0.54360336"
         d="m 150.49379,188.56064 h -14.08912 c -0.83672,0 -1.63307,-0.36365 -2.1744,-1.00622 -0.54394,-0.6364 -0.78125,-1.47929 -0.64873,-2.30491 0.19416,-1.20192 0.28661,-2.25591 0.27891,-3.21807 l -0.24809,-39.78092 c -0.0154,-3.55506 -2.92837,-6.5178 -6.4765,-6.60471 -1.69224,-0.0924 -3.25134,0.55474 -4.41674,1.70689 -1.17265,1.14644 -1.81136,2.7017 -1.79888,4.38146 l 0.13869,21.17875 c 0.0131,2.19612 -1.30363,4.07697 -3.35675,4.80552 -2.10425,0.75043 -4.36836,0.0925 -5.77577,-1.66343 L 94.628419,144.49564 c -0.0832,-0.10786 -0.22729,-0.32051 -0.29293,-0.4407 -0.35226,-0.48385 -0.45226,-0.93534 -0.45226,-1.53784 V 95.653033 c 0,-1.57644 1.2785,-2.85392 2.85392,-2.85392 1.57971,0 2.85826,1.27743 2.85826,2.85392 v 45.901917 l 15.741131,19.62396 -0.12482,-19.40654 c -0.02,-3.23994 1.22473,-6.26231 3.51226,-8.49649 2.28473,-2.23974 5.33822,-3.40298 8.56337,-3.34319 6.59777,0.16796 12.00009,5.68061 12.04247,12.28547 l 0.24809,39.78077 c 0.002,0.27737 0,0.55936 -0.0111,0.84751 h 8.07582 V 86.362233 c 0,-1.57645 1.27743,-2.85392 2.8561,-2.85392 1.5776,0 2.8561,1.27742 2.8561,2.85392 v 99.343547 c 0,1.57636 -1.27896,2.85394 -2.8561,2.85394" />
      <path
         id="path1404"
         style="fill:#040606;fill-opacity:1;fill-rule:nonzero;stroke:none;stroke-width:0.54360336"
         d="m 96.731939,84.656233 c -1.57536,0 -2.85391,-1.28297 -2.85391,-2.86477 V 62.662057 c 0,-1.581896 1.27851,-2.859352 2.85391,-2.859352 h 53.761851 c 1.57744,0 2.8561,1.277425 2.8561,2.859352 v 7.425616 c 0,1.57646 -1.27897,2.85391 -2.8561,2.85391 -1.57806,0 -2.8561,-1.27742 -2.8561,-2.85391 v -4.5717 H 99.590219 v 16.27549 c 0,1.58188 -1.27851,2.86477 -2.85828,2.86477" />
    </g>
  </g>
</svg>
