<?xml version="1.0" encoding="UTF-8" standalone="no"?>
<!-- Created with Inkscape (http://www.inkscape.org/) -->

<svg
   xmlns:dc="http://purl.org/dc/elements/1.1/"
   xmlns:cc="http://creativecommons.org/ns#"
   xmlns:rdf="http://www.w3.org/1999/02/22-rdf-syntax-ns#"
   xmlns:svg="http://www.w3.org/2000/svg"
   xmlns="http://www.w3.org/2000/svg"
   xmlns:sodipodi="http://sodipodi.sourceforge.net/DTD/sodipodi-0.dtd"
   xmlns:inkscape="http://www.inkscape.org/namespaces/inkscape"
   width="127.84229mm"
   height="210.5672mm"
   viewBox="0 0 127.84229 210.5672"
   version="1.1"
   id="svg4311"
   inkscape:version="0.92.5 (2060ec1f9f, 2020-04-08)"
   sodipodi:docname="licht-auf.svg">
  <defs
     id="defs4305" />
  <sodipodi:namedview
     id="base"
     pagecolor="#ffffff"
     bordercolor="#666666"
     borderopacity="1.0"
     inkscape:pageopacity="0.0"
     inkscape:pageshadow="2"
     inkscape:zoom="0.35"
     inkscape:cx="244.91174"
     inkscape:cy="387.92226"
     inkscape:document-units="mm"
     inkscape:current-layer="layer1"
     showgrid="false"
     fit-margin-top="0"
     fit-margin-left="0"
     fit-margin-right="0"
     fit-margin-bottom="0"
     inkscape:window-width="1020"
     inkscape:window-height="738"
     inkscape:window-x="0"
     inkscape:window-y="0"
     inkscape:window-maximized="1" />
  <metadata
     id="metadata4308">
    <rdf:RDF>
      <cc:Work
         rdf:about="">
        <dc:format>image/svg+xml</dc:format>
        <dc:type
           rdf:resource="http://purl.org/dc/dcmitype/StillImage" />
        <dc:title></dc:title>
      </cc:Work>
    </rdf:RDF>
  </metadata>
  <g
     inkscape:label="Ebene 1"
     inkscape:groupmode="layer"
     id="layer1"
     transform="translate(-41.033768,-40.903895)">
    <g
       id="g4335"
       transform="matrix(17.917981,0,0,17.917981,-1926.8162,-1111.9108)">
      <path
         d="m 115.00981,72.621641 h -3.23391 c -0.0501,0 -0.0984,-0.02011 -0.1337,-0.05539 -0.0353,-0.03598 -0.0554,-0.08396 -0.055,-0.134055 -10e-4,-0.01623 -0.0444,-0.563386 -1.18709,-2.585861 -0.37359,-0.570795 -0.57468,-1.245306 -0.57468,-1.940631 0,-1.239308 0.6283,-2.371372 1.68099,-3.028597 0.0886,-0.05503 0.20496,-0.02787 0.26,0.06033 0.055,0.08855 0.0282,0.204964 -0.06,0.259997 -0.94156,0.587728 -1.50354,1.6002 -1.50354,2.708275 0,0.621947 0.17957,1.224845 0.51965,1.744133 0.877,1.552223 1.13559,2.285648 1.21108,2.594328 h 2.91853 c 0.0755,-0.308328 0.33267,-1.039283 1.20474,-2.583744 0.0928,-0.14217 0.16933,-0.281164 0.2353,-0.423334 0.0434,-0.0949 0.15522,-0.136172 0.25012,-0.09243 0.0949,0.04339 0.13617,0.155575 0.0924,0.250119 -0.073,0.159103 -0.1591,0.314678 -0.25577,0.461786 -1.13594,2.012245 -1.17933,2.559403 -1.18074,2.581628 -0.006,0.09984 -0.0885,0.183444 -0.18839,0.183444"
         style="fill:#040606;fill-opacity:1;fill-rule:nonzero;stroke:none;stroke-width:0.03527778"
         id="path1546"
         inkscape:connector-curvature="0" />
      <path
         d="m 116.75571,68.423233 c -0.006,0 -0.012,-3.44e-4 -0.018,-7.14e-4 -0.10372,-0.01023 -0.17992,-0.102306 -0.16969,-0.206023 0.0102,-0.102658 0.0148,-0.20708 0.0148,-0.310797 0,-1.75895 -1.43087,-3.189817 -3.19017,-3.189817 -0.22825,0 -0.45649,0.02399 -0.67804,0.07197 -0.10089,0.02259 -0.20214,-0.04268 -0.22401,-0.14463 -0.0222,-0.101953 0.0427,-0.202141 0.14464,-0.224366 0.24729,-0.05362 0.50235,-0.08043 0.75741,-0.08043 1.96709,0 3.56764,1.6002 3.56764,3.567289 0,0.115711 -0.006,0.232481 -0.0166,0.347133 -0.01,0.09737 -0.0917,0.170392 -0.18803,0.170392"
         style="fill:#040606;fill-opacity:1;fill-rule:nonzero;stroke:none;stroke-width:0.03527778"
         id="path1548"
         inkscape:connector-curvature="0" />
      <path
         d="m 111.7759,73.500763 c -0.0494,0 -0.0903,0.04022 -0.0903,0.08996 v 0.305859 c 0,0.04974 0.0409,0.08996 0.0903,0.08996 h 3.24591 c 0.0501,0 0.0903,-0.04022 0.0903,-0.08996 v -0.305858 c 0,-0.04974 -0.0402,-0.08996 -0.0903,-0.08996 h -0.012 c -0.10442,0 -0.18873,-0.08467 -0.18873,-0.188736 0,-0.104423 0.0843,-0.188736 0.18873,-0.188736 0.0498,0 0.09,-0.04022 0.09,-0.08996 v -0.305859 c 0,-0.04974 -0.0402,-0.08996 -0.09,-0.08996 h -3.24626 c -0.0497,0 -0.09,0.04022 -0.09,0.08996 v 0.305858 c -3.5e-4,0.05115 0.0448,0.08961 0.0949,0.08996 0.1076,-0.0014 0.19615,0.0822 0.19615,0.188736 0,0.104069 -0.0843,0.188736 -0.18874,0.188736 z m 3.24591,0.863247 h -3.24591 c -0.25753,0 -0.46743,-0.209902 -0.46743,-0.46743 v -0.305858 c 0,-0.100895 0.0325,-0.194381 0.0868,-0.270934 -0.0624,-0.07937 -0.0991,-0.178858 -0.0991,-0.286455 v -0.305858 c 0,-0.257528 0.20991,-0.467431 0.46743,-0.467431 h 3.24626 c 0.25788,0 0.46708,0.209903 0.46708,0.467431 v 0.305858 c 0,0.100542 -0.0314,0.194028 -0.0861,0.270228 0.0617,0.07937 0.0988,0.179211 0.0988,0.287161 v 0.305858 c 0,0.257528 -0.20955,0.46743 -0.46778,0.46743"
         style="fill:#040606;fill-opacity:1;fill-rule:nonzero;stroke:none;stroke-width:0.03527778"
         id="path1550"
         inkscape:connector-curvature="0" />
      <path
         d="m 112.25215,74.36401 c -0.001,0 -0.007,0.0049 -0.007,0.01587 v 0.516467 c 0,0.01129 0.006,0.01587 0.008,0.01623 h 2.28106 c 0.001,-3.44e-4 0.007,-0.0049 0.007,-0.01623 V 74.37988 c 0,-0.01093 -0.006,-0.01587 -0.007,-0.01587 z m 2.28141,0.926042 h -2.28141 c -0.21202,0 -0.38453,-0.176389 -0.38453,-0.3937 v -0.516467 c 0,-0.216958 0.17251,-0.393347 0.38453,-0.393347 h 2.28141 c 0.21202,0 0.38418,0.176389 0.38418,0.393347 v 0.516467 c 0,0.217311 -0.17216,0.3937 -0.38418,0.3937"
         style="fill:#040606;fill-opacity:1;fill-rule:nonzero;stroke:none;stroke-width:0.03527778"
         id="path1552"
         inkscape:connector-curvature="0" />
      <path
         d="m 112.61128,75.290052 c 0.0797,0.245181 0.31009,0.422628 0.58173,0.422628 h 0.40005 c 0.27093,0 0.50165,-0.177447 0.58138,-0.422628 z m 0.98178,0.8001 h -0.40005 c -0.5454,0 -0.98884,-0.443794 -0.98884,-0.988836 0,-0.10407 0.0843,-0.188736 0.18874,-0.188736 h 1.9999 c 0.10442,0 0.18873,0.08467 0.18873,0.188736 0,0.545042 -0.44344,0.988836 -0.98848,0.988836"
         style="fill:#040606;fill-opacity:1;fill-rule:nonzero;stroke:none;stroke-width:0.03527778"
         id="path1554"
         inkscape:connector-curvature="0" />
      <path
         d="m 112.99722,72.244169 h 0.79128 V 69.71193 c 0,-0.05045 0.0201,-0.09878 0.0557,-0.134055 0.0356,-0.03563 0.0794,-0.05609 0.1344,-0.05468 l 0.81175,0.0071 -1.39771,-1.792817 -1.39735,1.792817 0.81174,-0.0071 c 0.0473,-0.0011 0.0988,0.01905 0.13441,0.05468 0.0356,0.03528 0.0557,0.08361 0.0557,0.134056 z m 0.97966,0.377472 h -1.16805 c -0.10442,0 -0.18873,-0.08431 -0.18873,-0.188736 v -2.530828 l -1.01212,0.0088 c -0.0755,-0.0032 -0.13864,-0.04022 -0.17075,-0.105129 -0.0321,-0.06491 -0.024,-0.142169 0.0205,-0.199319 l 1.78612,-2.291996 c 0.0716,-0.09137 0.22648,-0.09137 0.29774,0 l 1.78682,2.291997 c 0.0444,0.05715 0.0522,0.134408 0.0201,0.199319 -0.0321,0.06491 -0.0981,0.101953 -0.17074,0.105128 l -1.01177,-0.0088 v 2.530828 c 0,0.104422 -0.0847,0.188736 -0.18909,0.188736"
         style="fill:#040606;fill-opacity:1;fill-rule:nonzero;stroke:none;stroke-width:0.03527778"
         id="path1556"
         inkscape:connector-curvature="0" />
    </g>
  </g>
</svg>
