<?xml version="1.0" encoding="UTF-8" standalone="no"?>
<svg
   xmlns:dc="http://purl.org/dc/elements/1.1/"
   xmlns:cc="http://creativecommons.org/ns#"
   xmlns:rdf="http://www.w3.org/1999/02/22-rdf-syntax-ns#"
   xmlns:svg="http://www.w3.org/2000/svg"
   xmlns="http://www.w3.org/2000/svg"
   id="svg1877"
   version="1.1"
   viewBox="0 0 185.55264 214.55714"
   height="214.55714mm"
   width="185.55264mm">
  <defs
     id="defs1871" />
  <metadata
     id="metadata1874">
    <rdf:RDF>
      <cc:Work
         rdf:about="">
        <dc:format>image/svg+xml</dc:format>
        <dc:type
           rdf:resource="http://purl.org/dc/dcmitype/StillImage" />
        <dc:title></dc:title>
      </cc:Work>
    </rdf:RDF>
  </metadata>
  <g
     transform="translate(-13.435042,-10.223826)"
     id="layer1">
    <g
       transform="matrix(16.98012,0,0,16.98012,-1986.0831,-1344.304)"
       id="g1937">
      <path
         id="path656"
         style="fill:#000000;fill-opacity:1;fill-rule:nonzero;stroke:none;stroke-width:0.03527778"
         d="m 122.22611,89.363093 h 1.98649 c 0.0385,-0.802171 0.38665,-1.568087 0.9906,-2.171372 0.53023,-0.529449 0.82233,-1.233629 0.82233,-1.982999 0,-0.796502 -0.34079,-1.558855 -0.93522,-2.090491 -0.60219,-0.539362 -1.38042,-0.786976 -2.19286,-0.696454 -1.23966,0.13836 -2.27013,1.131076 -2.45075,2.36086 -0.13018,0.886213 0.15064,1.756868 0.77047,2.388976 0.60677,0.618454 0.96061,1.390015 1.00894,2.19148 z m 2.19675,0.427605 h -2.40489 c -0.11818,0 -0.21413,-0.09564 -0.21413,-0.213871 v -0.02536 c 0,-0.755562 -0.31645,-1.494349 -0.89147,-2.080701 -0.71438,-0.728169 -1.03823,-1.730693 -0.88865,-2.750291 0.20814,-1.418837 1.397,-2.564235 2.82645,-2.723409 0.93381,-0.103646 1.83092,0.181363 2.52519,0.802287 0.68474,0.613093 1.07773,1.491192 1.07773,2.409367 0,0.8636 -0.33655,1.675412 -0.94756,2.285329 -0.56056,0.559506 -0.86889,1.276068 -0.86889,2.017868 v 0.06491 c 0,0.118233 -0.0956,0.213871 -0.21378,0.213871" />
      <path
         id="path658"
         style="fill:#000000;fill-opacity:1;fill-rule:nonzero;stroke:none;stroke-width:0.03527778"
         d="m 121.93719,89.790698 c -0.11748,0 -0.21273,0.0955 -0.21273,0.213042 0,0.117825 0.0953,0.213459 0.21273,0.213459 h 2.5661 c 0.11783,0 0.21308,-0.09563 0.21308,-0.213459 0,-0.117545 -0.0952,-0.213042 -0.21308,-0.213042 z m 2.5661,0.853969 h -2.5661 c -0.35314,0 -0.6403,-0.287457 -0.6403,-0.640927 0,-0.35319 0.28716,-0.640647 0.6403,-0.640647 h 2.5661 c 0.35348,0 0.64065,0.287457 0.64065,0.640647 0,0.35347 -0.28717,0.640927 -0.64065,0.640927" />
      <path
         id="path660"
         style="fill:#000000;fill-opacity:1;fill-rule:nonzero;stroke:none;stroke-width:0.03527778"
         d="m 121.93719,91.553207 c -0.11748,0 -0.21273,0.09522 -0.21273,0.213047 0,0.11782 0.0953,0.213458 0.21273,0.213458 h 2.5661 c 0.11783,0 0.21308,-0.09564 0.21308,-0.213458 0,-0.117825 -0.0952,-0.213047 -0.21308,-0.213047 z m 2.5661,0.853971 h -2.5661 c -0.35314,0 -0.6403,-0.287459 -0.6403,-0.640924 0,-0.35347 0.28716,-0.640652 0.6403,-0.640652 h 2.5661 c 0.35348,0 0.64065,0.287182 0.64065,0.640652 0,0.353465 -0.28717,0.640924 -0.64065,0.640924" />
      <path
         id="path662"
         style="fill:#000000;fill-opacity:1;fill-rule:nonzero;stroke:none;stroke-width:0.03527778"
         d="m 122.19189,91.125602 h 2.05705 v -0.480935 h -2.05705 z m 2.27048,0.427605 h -2.48426 c -0.11783,0 -0.21379,-0.09605 -0.21379,-0.214146 v -0.908128 c 0,-0.118096 0.096,-0.213734 0.21379,-0.213734 h 2.48426 c 0.11818,0 0.21413,0.09564 0.21413,0.213734 v 0.908128 c 0,0.118099 -0.096,0.214146 -0.21413,0.214146" />
      <path
         id="path664"
         style="fill:#000000;fill-opacity:1;fill-rule:nonzero;stroke:none;stroke-width:0.03527778"
         d="m 123.22059,81.481413 c -0.11818,0 -0.21378,-0.09536 -0.21378,-0.213466 v -1.282665 c 0,-0.117827 0.0956,-0.213889 0.21378,-0.213889 0.11783,0 0.21343,0.09606 0.21343,0.213889 v 1.282665 c 0,0.11811 -0.0956,0.213466 -0.21343,0.213466" />
      <path
         id="path666"
         style="fill:#000000;fill-opacity:1;fill-rule:nonzero;stroke:none;stroke-width:0.03527778"
         d="m 126.02623,82.643357 c -0.0547,0 -0.10936,-0.02081 -0.15134,-0.06283 -0.0832,-0.08322 -0.0832,-0.218299 0,-0.301943 l 0.90699,-0.906604 c 0.0833,-0.08364 0.21872,-0.08364 0.30198,0 0.0833,0.08364 0.0833,0.218687 0,0.302331 l -0.90664,0.906215 c -0.0416,0.04202 -0.0967,0.06283 -0.15099,0.06283" />
      <path
         id="path668"
         style="fill:#000000;fill-opacity:1;fill-rule:nonzero;stroke:none;stroke-width:0.03527778"
         d="m 128.47063,85.449034 h -1.28235 c -0.11818,0 -0.21343,-0.09521 -0.21343,-0.213431 0,-0.118251 0.0952,-0.213748 0.21343,-0.213748 h 1.28235 c 0.11818,0 0.21343,0.0955 0.21343,0.213748 0,0.118216 -0.0952,0.213431 -0.21343,0.213431" />
      <path
         id="path670"
         style="fill:#000000;fill-opacity:1;fill-rule:nonzero;stroke:none;stroke-width:0.03527778"
         d="m 119.25255,85.449034 h -1.2827 c -0.11818,0 -0.21343,-0.09521 -0.21343,-0.213431 0,-0.118251 0.0952,-0.213748 0.21343,-0.213748 h 1.2827 c 0.11782,0 0.21343,0.0955 0.21343,0.213748 0,0.118216 -0.0956,0.213431 -0.21343,0.213431" />
      <path
         id="path672"
         style="fill:#000000;fill-opacity:1;fill-rule:nonzero;stroke:none;stroke-width:0.03527778"
         d="m 120.4146,82.643357 c -0.0543,0 -0.10936,-0.02081 -0.15099,-0.06283 l -0.90664,-0.906216 c -0.0836,-0.08364 -0.0836,-0.218687 0,-0.302331 0.0832,-0.08364 0.21837,-0.08364 0.30198,0 l 0.90699,0.906604 c 0.0833,0.08364 0.0833,0.218722 0,0.301942 -0.042,0.04202 -0.0967,0.06283 -0.15134,0.06283" />
      <path
         id="path674"
         style="fill:#000000;fill-opacity:1;fill-rule:nonzero;stroke:none;stroke-width:0.03527778"
         d="m 123.67603,88.975048 c -0.0169,0 -0.0342,-0.0021 -0.0512,-0.0063 -0.11465,-0.02783 -0.1845,-0.144004 -0.15663,-0.258657 l 0.36054,-1.468155 c -0.39899,0.106786 -0.81739,0.107209 -1.21673,0 l 0.36019,1.468155 c 0.0282,0.114653 -0.042,0.230823 -0.15629,0.258657 -0.1143,0.02963 -0.23071,-0.04163 -0.25858,-0.156669 l -0.45579,-1.856246 c -0.0198,-0.08047 0.009,-0.164394 0.072,-0.216605 0.0642,-0.05225 0.15204,-0.06283 0.22648,-0.02826 0.52141,0.245145 1.11972,0.244862 1.64042,0 0.0748,-0.03457 0.16227,-0.02399 0.22648,0.02826 0.0635,0.05221 0.0921,0.136136 0.072,0.216605 l -0.45544,1.856246 c -0.0236,0.09768 -0.11148,0.163019 -0.20743,0.163019" />
    </g>
  </g>
</svg>
