<?xml version="1.0" encoding="UTF-8" standalone="no"?>
<!-- Created with Inkscape (http://www.inkscape.org/) -->

<svg
   xmlns:dc="http://purl.org/dc/elements/1.1/"
   xmlns:cc="http://creativecommons.org/ns#"
   xmlns:rdf="http://www.w3.org/1999/02/22-rdf-syntax-ns#"
   xmlns:svg="http://www.w3.org/2000/svg"
   xmlns="http://www.w3.org/2000/svg"
   xmlns:sodipodi="http://sodipodi.sourceforge.net/DTD/sodipodi-0.dtd"
   xmlns:inkscape="http://www.inkscape.org/namespaces/inkscape"
   width="176.86784mm"
   height="263.08176mm"
   viewBox="0 0 176.86784 263.08176"
   version="1.1"
   id="svg1852"
   inkscape:version="0.92.5 (2060ec1f9f, 2020-04-08)"
   sodipodi:docname="lighthouse-weniger-strahlen.svg">
  <defs
     id="defs1846" />
  <sodipodi:namedview
     id="base"
     pagecolor="#ffffff"
     bordercolor="#666666"
     borderopacity="1.0"
     inkscape:pageopacity="0.0"
     inkscape:pageshadow="2"
     inkscape:zoom="0.35"
     inkscape:cx="305.66702"
     inkscape:cy="493.21752"
     inkscape:document-units="mm"
     inkscape:current-layer="layer1"
     showgrid="false"
     inkscape:window-width="1020"
     inkscape:window-height="738"
     inkscape:window-x="0"
     inkscape:window-y="0"
     inkscape:window-maximized="1"
     fit-margin-top="0"
     fit-margin-left="0"
     fit-margin-right="0"
     fit-margin-bottom="0" />
  <metadata
     id="metadata1849">
    <rdf:RDF>
      <cc:Work
         rdf:about="">
        <dc:format>image/svg+xml</dc:format>
        <dc:type
           rdf:resource="http://purl.org/dc/dcmitype/StillImage" />
        <dc:title></dc:title>
      </cc:Work>
    </rdf:RDF>
  </metadata>
  <g
     inkscape:label="Ebene 1"
     inkscape:groupmode="layer"
     id="layer1"
     transform="translate(-24.958936,-16.24871)">
    <path
       inkscape:connector-curvature="0"
       id="path974"
       style="fill:#000000;fill-opacity:1;fill-rule:nonzero;stroke:none;stroke-width:0.59095597"
       d="m 83.884879,139.30404 h 57.625281 v -5.11767 H 83.884879 Z m 61.803341,8.35612 H 79.709179 c -2.30828,0 -4.17806,-1.87392 -4.17806,-4.17806 v -13.47438 c 0,-2.30591 1.86978,-4.17806 4.17806,-4.17806 h 65.979041 c 2.30414,0 4.17392,1.87215 4.17392,4.17806 v 13.47438 c 0,2.30414 -1.86978,4.17806 -4.17392,4.17806" />
    <path
       inkscape:connector-curvature="0"
       id="path976"
       style="fill:#000000;fill-opacity:1;fill-rule:nonzero;stroke:none;stroke-width:0.59095597"
       d="m 90.454529,125.82966 h 44.483611 v -6.75462 H 90.454529 Z m 48.659311,8.35671 H 86.281189 c -2.30827,0 -4.17806,-1.86801 -4.17806,-4.17865 V 114.9017 c 0,-2.30827 1.86979,-4.17629 4.17806,-4.17629 h 52.832651 c 2.30886,0 4.17865,1.86802 4.17865,4.17629 v 15.10602 c 0,2.31064 -1.86979,4.17865 -4.17865,4.17865" />
    <path
       inkscape:connector-curvature="0"
       id="path978"
       style="fill:#000000;fill-opacity:1;fill-rule:nonzero;stroke:none;stroke-width:0.59095597"
       d="m 108.27599,125.82966 h 8.84128 v -6.75462 h -8.84128 z m 13.01698,8.35671 h -17.19326 c -2.30592,0 -4.175701,-1.86801 -4.175701,-4.17865 V 114.9017 c 0,-2.30827 1.869781,-4.17629 4.175701,-4.17629 h 17.19326 c 2.30591,0 4.1757,1.86802 4.1757,4.17629 v 15.10602 c 0,2.31064 -1.86979,4.17865 -4.1757,4.17865" />
    <path
       inkscape:connector-curvature="0"
       id="path980"
       style="fill:#000000;fill-opacity:1;fill-rule:nonzero;stroke:none;stroke-width:0.59095597"
       d="m 101.05036,110.72541 h 23.29195 V 83.924982 h -23.29195 z m 27.46999,8.34963 H 96.872299 c -2.30412,0 -4.1739,-1.87451 -4.1739,-4.17334 V 79.753422 c 0,-2.31064 1.86978,-4.17806 4.1739,-4.17806 h 31.648051 c 2.30652,0 4.17631,1.86742 4.17631,4.17806 V 114.9017 c 0,2.29883 -1.86979,4.17334 -4.17631,4.17334" />
    <path
       inkscape:connector-curvature="0"
       id="path982"
       style="fill:#000000;fill-opacity:1;fill-rule:nonzero;stroke:none;stroke-width:0.59095597"
       d="m 90.454529,75.575362 h 44.483611 v -2.08017 H 90.454529 Z m 46.362851,8.34962 H 88.580609 c -3.57352,0 -6.47748,-2.9087 -6.47748,-6.47747 v -5.82624 c 0,-3.57588 2.90396,-6.4822 6.47748,-6.4822 h 48.236771 c 3.56879,0 6.47511,2.90632 6.47511,6.4822 v 5.82624 c 0,3.56877 -2.90632,6.47747 -6.47511,6.47747" />
    <path
       inkscape:connector-curvature="0"
       id="path984"
       style="fill:#000000;fill-opacity:1;fill-rule:nonzero;stroke:none;stroke-width:0.59095597"
       d="m 99.221949,65.139072 h 26.951131 c -1.44079,-2.47019 -4.12073,-4.12546 -7.17951,-4.12546 h -12.59209 c -3.05879,0 -5.73642,1.65522 -7.179531,4.12546 z m 32.257931,8.35612 H 93.917539 c -2.30828,0 -4.17865,-1.86742 -4.17865,-4.17806 0,-9.18996 7.47499,-16.659641 16.662591,-16.659641 h 12.59209 c 9.18758,0 16.66023,7.469681 16.66023,16.659641 0,2.31064 -1.86979,4.17806 -4.17392,4.17806" />
    <path
       inkscape:connector-curvature="0"
       id="path986"
       style="fill:#000000;fill-opacity:1;fill-rule:nonzero;stroke:none;stroke-width:0.59095597"
       d="M 70.835379,270.98092 H 154.55729 L 135.29331,147.66016 H 90.101729 Z m 88.602021,8.34955 H 65.957629 c -1.22085,0 -2.37979,-0.53102 -3.17403,-1.45889 -0.79184,-0.92334 -1.13994,-2.15146 -0.95316,-3.35645 l 20.56822,-131.68368 c 0.31862,-2.02696 2.07071,-3.52741 4.12724,-3.52741 h 52.343331 c 2.05712,0 3.8093,1.50043 4.12546,3.52741 l 20.56764,131.68365 c 0.19197,1.20494 -0.15746,2.43307 -0.95082,3.35645 -0.79419,0.92803 -1.9531,1.45889 -3.17402,1.45889" />
    <path
       inkscape:connector-curvature="0"
       id="path988"
       style="fill:#000000;fill-opacity:1;fill-rule:nonzero;stroke:none;stroke-width:0.59095597"
       d="m 108.60574,192.31693 h 8.18355 V 182.432 c 0,-2.25745 -1.8355,-4.09472 -4.09295,-4.09472 -2.25272,0 -4.0906,1.83727 -4.0906,4.09472 z m 12.35925,8.35612 h -16.53494 c -2.30592,0 -4.17629,-1.86742 -4.17629,-4.17806 V 182.432 c 0,-6.8675 5.58217,-12.45143 12.44258,-12.45143 6.86276,0 12.4473,5.58393 12.4473,12.45143 v 14.06299 c 0,2.31064 -1.86979,4.17806 -4.17865,4.17806" />
    <path
       inkscape:connector-curvature="0"
       id="path990"
       style="fill:#000000;fill-opacity:1;fill-rule:nonzero;stroke:none;stroke-width:0.59095597"
       d="m 124.55031,200.67305 h -23.70737 c -2.308861,0 -4.178641,-1.86742 -4.178641,-4.17806 0,-2.30355 1.86978,-4.17806 4.178641,-4.17806 h 23.70737 c 2.30828,0 4.1757,1.87451 4.1757,4.17806 0,2.31064 -1.86742,4.17806 -4.1757,4.17806" />
    <path
       inkscape:connector-curvature="0"
       id="path992"
       style="fill:#000000;fill-opacity:1;fill-rule:nonzero;stroke:none;stroke-width:0.59095597"
       d="m 108.60574,241.64551 h 8.18355 V 231.747 c 0,-2.25303 -1.8355,-4.09054 -4.09295,-4.09054 -2.25272,0 -4.0906,1.83751 -4.0906,4.09054 z m 12.35925,8.35646 h -16.53494 c -2.30592,0 -4.17629,-1.86753 -4.17629,-4.17823 V 231.747 c 0,-6.86065 5.58217,-12.43993 12.44258,-12.43993 6.86276,0 12.4473,5.57928 12.4473,12.43993 v 14.07674 c 0,2.3107 -1.86979,4.17823 -4.17865,4.17823" />
    <path
       inkscape:connector-curvature="0"
       id="path994"
       style="fill:#000000;fill-opacity:1;fill-rule:nonzero;stroke:none;stroke-width:0.59095597"
       d="m 124.55031,250.00197 h -23.70737 c -2.308861,0 -4.178641,-1.86753 -4.178641,-4.17823 0,-2.31075 1.86978,-4.17823 4.178641,-4.17823 h 23.70737 c 2.30828,0 4.1757,1.86748 4.1757,4.17823 0,2.3107 -1.86742,4.17823 -4.1757,4.17823" />
    <path
       inkscape:connector-curvature="0"
       id="path996"
       style="fill:#000000;fill-opacity:1;fill-rule:nonzero;stroke:none;stroke-width:0.59095597"
       d="M 167.44958,279.33047 H 57.945449 c -2.3065,0 -4.17628,-1.86752 -4.17628,-4.17132 0,-2.31076 1.86978,-4.17823 4.17628,-4.17823 H 167.44958 c 2.3065,0 4.17629,1.86747 4.17629,4.17823 0,2.3038 -1.86979,4.17132 -4.17629,4.17132" />
    <path
       inkscape:connector-curvature="0"
       id="path1000"
       style="fill:#000000;fill-opacity:1;fill-rule:nonzero;stroke:none;stroke-width:0.59095597"
       d="m 134.43464,50.849768 c -0.47273,0 -0.9555,-0.08376 -1.4289,-0.25412 -2.16761,-0.787153 -3.28452,-3.180542 -2.49501,-5.34817 l 7.73325,-21.258449 c 0.7895,-2.167629 3.18762,-3.285122 5.35052,-2.497968 2.16999,0.791843 3.28748,3.183473 2.50033,5.353463 l -7.73325,21.256088 c -0.62115,1.696643 -2.21844,2.74914 -3.92691,2.74914" />
    <path
       inkscape:connector-curvature="0"
       id="path1004"
       style="fill:#000000;fill-opacity:1;fill-rule:nonzero;stroke:none;stroke-width:0.59095597"
       d="m 167.58609,78.234662 c -1.4408,0 -2.84605,-0.75047 -3.6196,-2.09375 -1.15418,-1.99685 -0.46619,-4.54978 1.53059,-5.70865 l 19.58665,-11.30438 c 1.99034,-1.15184 4.55036,-0.4734 5.70449,1.53058 1.15418,1.99921 0.46854,4.54978 -1.52824,5.70391 l -19.5896,11.3044 c -0.65532,0.38294 -1.3758,0.56787 -2.08431,0.56787" />
    <path
       inkscape:connector-curvature="0"
       id="path1008"
       style="fill:#000000;fill-opacity:1;fill-rule:nonzero;stroke:none;stroke-width:0.59095597"
       d="m 197.6557,124.43972 c -0.24223,0 -0.48512,-0.0234 -0.72986,-0.0637 l -22.27368,-3.92461 c -2.27164,-0.4012 -3.78803,-2.56416 -3.38618,-4.83816 0.39885,-2.26927 2.57598,-3.77207 4.83343,-3.38677 l 22.27431,3.92455 c 2.27341,0.40187 3.7904,2.56474 3.38854,4.83874 -0.35747,2.02639 -2.11916,3.45059 -4.10656,3.45059" />
    <path
       inkscape:connector-curvature="0"
       id="path1018"
       style="fill:#000000;fill-opacity:1;fill-rule:nonzero;stroke:none;stroke-width:0.59095597"
       d="m 29.300038,125.39826 c -1.992106,0 -3.751382,-1.42471 -4.10891,-3.45118 -0.401868,-2.27636 1.117493,-4.43926 3.386183,-4.84112 l 22.274308,-3.92157 c 2.2734,-0.39718 4.43925,1.11447 4.8358,3.3838 0.40421,2.27636 -1.11214,4.43927 -3.38383,4.84112 l -22.274307,3.92394 c -0.244572,0.0452 -0.489312,0.0653 -0.729193,0.0653" />
    <path
       inkscape:connector-curvature="0"
       id="path1022"
       style="fill:#000000;fill-opacity:1;fill-rule:nonzero;stroke:none;stroke-width:0.59095597"
       d="m 58.711919,79.067902 c -0.70909,0 -1.42891,-0.1779 -2.0849,-0.55615 L 37.042752,67.200262 c -1.996846,-1.15183 -2.682351,-3.7047 -1.530585,-5.70154 1.154179,-1.99921 3.709437,-2.67822 5.703905,-1.53059 l 19.587237,11.30439 c 1.99685,1.15183 2.68235,3.7118 1.52991,5.70864 -0.77291,1.34079 -2.17885,2.08665 -3.62137,2.08665" />
    <path
       inkscape:connector-curvature="0"
       id="path1026"
       style="fill:#000000;fill-opacity:1;fill-rule:nonzero;stroke:none;stroke-width:0.59095597"
       d="m 91.440239,51.180108 c -1.70787,0 -3.30757,-1.053167 -3.92394,-2.747347 L 79.775949,27.18138 c -0.78716,-2.16999 0.33268,-4.560983 2.49562,-5.355239 2.16525,-0.778275 4.56572,0.320959 5.35524,2.49502 l 7.73561,21.251363 c 0.7895,2.167629 -0.32799,4.566311 -2.4956,5.358204 -0.46854,0.16584 -0.95551,0.24943 -1.42656,0.24943" />
    <path
       inkscape:connector-curvature="0"
       id="path1028"
       style="fill:#000000;fill-opacity:1;fill-rule:nonzero;stroke:none;stroke-width:0.59095597"
       d="m 88.845949,263.37927 h -4.2939 c -2.30827,0 -4.17806,-1.87215 -4.17806,-4.17133 0,-2.31068 1.86979,-4.17823 4.17806,-4.17823 h 4.2939 c 2.30828,0 4.17806,1.86755 4.17806,4.17823 0,2.29918 -1.86978,4.17133 -4.17806,4.17133" />
    <path
       inkscape:connector-curvature="0"
       id="path1030"
       style="fill:#000000;fill-opacity:1;fill-rule:nonzero;stroke:none;stroke-width:0.59095597"
       d="m 134.13918,217.43256 h -2.89451 c -2.30828,0 -4.17806,-1.86506 -4.17806,-4.17628 0,-2.29883 1.86978,-4.17334 4.17806,-4.17334 h 2.89451 c 2.30886,0 4.17864,1.87451 4.17864,4.17334 0,2.31122 -1.86978,4.17628 -4.17864,4.17628" />
    <path
       inkscape:connector-curvature="0"
       id="path1032"
       style="fill:#000000;fill-opacity:1;fill-rule:nonzero;stroke:none;stroke-width:0.59095597"
       d="m 102.0154,164.477 h -2.241501 c -2.30828,0 -4.17806,-1.86743 -4.17806,-4.17098 0,-2.30413 1.86978,-4.17806 4.17806,-4.17806 h 2.241501 c 2.30591,0 4.1757,1.87393 4.1757,4.17806 0,2.30355 -1.86979,4.17098 -4.1757,4.17098" />
  </g>
</svg>
