<?xml version="1.0" encoding="UTF-8" standalone="no"?>
<!-- Created with Inkscape (http://www.inkscape.org/) -->

<svg
   xmlns:dc="http://purl.org/dc/elements/1.1/"
   xmlns:cc="http://creativecommons.org/ns#"
   xmlns:rdf="http://www.w3.org/1999/02/22-rdf-syntax-ns#"
   xmlns:svg="http://www.w3.org/2000/svg"
   xmlns="http://www.w3.org/2000/svg"
   xmlns:sodipodi="http://sodipodi.sourceforge.net/DTD/sodipodi-0.dtd"
   xmlns:inkscape="http://www.inkscape.org/namespaces/inkscape"
   width="173.72714mm"
   height="173.79953mm"
   viewBox="0 0 173.72714 173.79953"
   version="1.1"
   id="svg327"
   inkscape:version="0.92.5 (2060ec1f9f, 2020-04-08)"
   sodipodi:docname="rudder3.svg">
  <defs
     id="defs321" />
  <sodipodi:namedview
     id="base"
     pagecolor="#ffffff"
     bordercolor="#666666"
     borderopacity="1.0"
     inkscape:pageopacity="0.0"
     inkscape:pageshadow="2"
     inkscape:zoom="0.35"
     inkscape:cx="395.52648"
     inkscape:cy="198.44007"
     inkscape:document-units="mm"
     inkscape:current-layer="layer1"
     showgrid="false"
     inkscape:window-width="1020"
     inkscape:window-height="738"
     inkscape:window-x="0"
     inkscape:window-y="0"
     inkscape:window-maximized="1"
     fit-margin-top="0"
     fit-margin-left="0"
     fit-margin-right="0"
     fit-margin-bottom="0" />
  <metadata
     id="metadata324">
    <rdf:RDF>
      <cc:Work
         rdf:about="">
        <dc:format>image/svg+xml</dc:format>
        <dc:type
           rdf:resource="http://purl.org/dc/dcmitype/StillImage" />
        <dc:title></dc:title>
      </cc:Work>
    </rdf:RDF>
  </metadata>
  <g
     inkscape:label="Ebene 1"
     inkscape:groupmode="layer"
     id="layer1"
     transform="translate(-1.1836189,-27.537737)">
    <path
       inkscape:connector-curvature="0"
       id="path22"
       style="fill:#000000;fill-opacity:1;fill-rule:evenodd;stroke:none;stroke-width:0.47969171"
       d="m 82.107221,51.924399 c 2.08002,-0.292618 3.862114,-0.292618 5.940087,-0.292618 2.077984,0 3.860076,0 5.939964,0.292618 l 0.890642,-15.143862 c 1.187066,-12.174575 -14.848401,-12.471994 -13.660252,0 z M 28.35784,64.401172 39.641634,74.201273 c 2.671915,-2.974083 5.346154,-5.645974 8.313951,-8.317853 L 37.85953,54.898481 C 30.138028,45.09838 18.85368,56.380742 28.35784,64.401172 Z M 88.047308,52.816631 c -34.151627,0 -61.769356,27.620634 -61.769356,61.472489 0,34.15355 27.617729,61.76983 61.769356,61.76983 34.152182,0 61.769902,-27.61628 61.769902,-61.76983 0,-33.851855 -27.61772,-61.472489 -61.769902,-61.472489 z m 0,111.960029 c -27.617732,0 -50.187778,-22.56998 -50.187778,-50.48754 0,-27.615865 22.570046,-50.185347 50.187778,-50.185347 27.916062,0 50.187772,22.569482 50.187772,50.185347 0,27.91756 -22.27171,50.48754 -50.187772,50.48754 z m 31.181922,-88.498318 -19.301862,21.67678 -0.297796,0.297929 c 1.782108,1.190052 3.564068,2.672359 4.751808,4.455849 l 0.29643,-0.29792 21.68008,-19.003932 c -2.37631,-2.672372 -4.75221,-5.051648 -7.12812,-7.128706 z m -11.28379,34.744548 c 0,1.18815 0,2.37447 0,3.26623 0,1.18964 0,2.374 0,3.56411 h 0.29642 l 28.80602,1.78348 c 0,-1.78348 0.29779,-3.56362 0.29779,-5.34759 0,-1.48226 -0.29779,-3.26623 -0.29779,-4.748 l -28.80602,1.48177 z m 57.61136,-3.26767 -14.84976,0.89174 c 0,1.78013 0.29778,3.862 0.29778,5.64215 0,2.08185 -0.29778,4.15795 -0.29778,5.93808 l 14.84976,0.89173 c 12.47195,1.19006 12.47195,-14.54808 0,-13.36372 z m -140.467142,6.5339 c 0,-1.78014 0.297784,-3.86202 0.297784,-5.64215 l -14.849748,-0.89172 c -12.4721002,-1.18436 -12.4721002,14.55384 0,13.36373 l 14.849748,-0.89173 c 0,-1.78014 -0.297784,-3.85625 -0.297784,-5.9381 z m 14.551976,40.38954 -11.283794,9.8001 c -9.50416,8.01613 1.780188,19.30374 9.50169,9.5037 l 10.096055,-11.28767 c -2.967797,-2.37399 -5.642036,-5.04588 -8.313951,-8.01613 z m 54.345638,22.27215 c -2.079888,0.29779 -3.86198,0.29779 -5.939964,0.29779 -2.077973,0 -3.860067,0 -5.940087,-0.29779 l -0.889282,15.14387 c -1.188426,12.47196 14.847992,12.17404 13.66024,0 z m 53.751828,-12.47205 -11.28611,-9.8001 c -2.3759,2.97025 -5.34574,5.64214 -8.31395,8.01613 l 10.09604,11.28767 c 7.72206,9.80004 19.00586,-1.48757 9.50402,-9.5037 z M 71.713792,102.70888 c 1.188426,-1.7835 2.969843,-3.265741 4.751802,-4.455853 L 76.169159,97.955098 57.162767,76.278318 c -2.67383,2.077058 -5.049731,4.456333 -7.127704,7.128694 l 21.381751,19.003938 z m -2.376456,11.58024 c 0,10.69184 8.315998,19.00586 18.709972,19.00586 10.393983,0 19.005862,-8.31402 19.005862,-19.00586 0,-10.39589 -8.611879,-18.707984 -19.005862,-18.707984 -10.393974,0 -18.709972,8.312094 -18.709972,18.707984 z m 24.352152,0 c 0,3.2662 -2.375902,5.93808 -5.64218,5.93808 -2.969844,0 -5.641629,-2.67188 -5.641629,-5.93808 0,-2.96979 2.671785,-5.64215 5.641629,-5.64215 3.266278,0 5.64218,2.67236 5.64218,5.64215 z M 84.781583,94.689385 c 1.188426,-0.297916 2.077985,-0.297916 3.265725,-0.297916 1.188426,0 2.375901,0 3.266278,0.297916 v -0.297916 l 1.78196,-28.805484 c -1.78196,-0.297374 -3.266135,-0.297374 -5.048238,-0.297374 -1.782092,0 -3.265725,0 -5.047819,0.297374 l 1.782094,28.805484 z m 19.599657,31.481685 c -1.18706,1.77966 -2.96971,3.26574 -4.7518,4.45202 l 0.297784,0.29601 19.301876,21.67776 c 2.3759,-2.07611 4.7518,-4.45201 7.12811,-7.12199 l -21.68009,-19.01162 z m 32.07175,-51.969797 11.28611,-9.800101 c 9.50184,-8.02043 -1.48608,-19.302792 -9.50402,-9.502691 L 128.13904,65.88342 c 2.96821,2.671879 5.93805,5.34377 8.31395,8.317853 z M 68.447513,117.85323 c -0.296423,-1.19007 -0.296423,-2.37448 -0.296423,-3.56411 0,-0.89173 0,-2.07804 0.296423,-3.26623 h -0.594207 l -28.806024,-1.48177 c 0,1.48177 -0.296423,3.26574 -0.296423,4.748 0,1.78397 0.296423,3.56411 0.296423,5.34759 l 28.806024,-1.78348 z m 22.866073,16.33349 c -0.890642,0.29834 -2.078117,0.29834 -3.266278,0.29834 -1.188427,0 -2.077973,0 -3.265725,-0.29834 v 0.29834 l -1.782094,28.80355 c 1.782094,0.29833 3.265727,0.29833 5.047819,0.29833 1.782103,0 3.266278,0 5.048238,-0.29833 l -1.78196,-28.80355 z m -19.599794,-8.01565 -0.296436,0.29207 -21.381751,19.01162 c 2.077985,2.66998 4.453886,5.04589 7.127704,7.122 l 19.006392,-21.67775 0.296435,-0.29602 c -1.781959,-1.18624 -3.564063,-2.67237 -4.751802,-4.45203 v 0" />
  </g>
</svg>
