<?xml version="1.0" encoding="UTF-8" standalone="no"?>
<!-- Created with Inkscape (http://www.inkscape.org/) -->

<svg
   xmlns:dc="http://purl.org/dc/elements/1.1/"
   xmlns:cc="http://creativecommons.org/ns#"
   xmlns:rdf="http://www.w3.org/1999/02/22-rdf-syntax-ns#"
   xmlns:svg="http://www.w3.org/2000/svg"
   xmlns="http://www.w3.org/2000/svg"
   xmlns:sodipodi="http://sodipodi.sourceforge.net/DTD/sodipodi-0.dtd"
   xmlns:inkscape="http://www.inkscape.org/namespaces/inkscape"
   width="247.18488mm"
   height="132.10103mm"
   viewBox="0 0 247.18488 132.10103"
   version="1.1"
   id="svg1984"
   inkscape:version="0.92.5 (2060ec1f9f, 2020-04-08)"
   sodipodi:docname="shake-hands.svg">
  <defs
     id="defs1978" />
  <sodipodi:namedview
     id="base"
     pagecolor="#ffffff"
     bordercolor="#666666"
     borderopacity="1.0"
     inkscape:pageopacity="0.0"
     inkscape:pageshadow="2"
     inkscape:zoom="0.35"
     inkscape:cx="409.9782"
     inkscape:cy="54.883425"
     inkscape:document-units="mm"
     inkscape:current-layer="layer1"
     showgrid="false"
     fit-margin-top="0"
     fit-margin-left="0"
     fit-margin-right="0"
     fit-margin-bottom="0"
     inkscape:window-width="1020"
     inkscape:window-height="738"
     inkscape:window-x="0"
     inkscape:window-y="0"
     inkscape:window-maximized="1" />
  <metadata
     id="metadata1981">
    <rdf:RDF>
      <cc:Work
         rdf:about="">
        <dc:format>image/svg+xml</dc:format>
        <dc:type
           rdf:resource="http://purl.org/dc/dcmitype/StillImage" />
        <dc:title></dc:title>
      </cc:Work>
    </rdf:RDF>
  </metadata>
  <g
     inkscape:label="Ebene 1"
     inkscape:groupmode="layer"
     id="layer1"
     transform="translate(2.6400644,-31.253543)">
    <g
       id="g2026"
       transform="matrix(19.251696,0,0,19.251696,-2425.8864,-1181.6731)">
      <path
         d="m 136.22159,63.913698 0.88935,3.275189 1.1243,-0.297744 -0.88406,-3.280128 z m 0.73872,3.750028 c -0.0942,0 -0.18027,-0.06279 -0.20638,-0.157692 l -1.00118,-3.687233 c -0.0148,-0.05503 -0.007,-0.113242 0.0212,-0.162631 0.0282,-0.04904 0.0748,-0.08502 0.12983,-0.09984 l 1.54305,-0.413455 c 0.11359,-0.03104 0.23071,0.03669 0.26176,0.150636 l 0.99554,3.693936 c 0.0148,0.05468 0.007,0.113242 -0.0212,0.162278 -0.0289,0.04939 -0.0755,0.08502 -0.13053,0.09984 l -1.5374,0.407105 c -0.0183,0.0046 -0.0367,0.0071 -0.0547,0.0071"
         style="fill:#000000;fill-opacity:1;fill-rule:nonzero;stroke:none;stroke-width:0.03527778"
         id="path60"
         inkscape:connector-curvature="0" />
      <path
         d="m 133.09386,65.318459 c 0.20214,0 0.40428,0.05856 0.57962,0.174625 l 2.0775,1.378656 c 0.22402,0.148872 0.49918,0.187678 0.75495,0.106186 l 0.0963,-0.03034 -0.68192,-2.512131 -0.22719,0.06315 c -0.31503,0.08749 -0.64735,0.08325 -0.95991,-0.0127 l -1.04246,-0.318559 c -0.30692,-0.09419 -0.64452,-0.01729 -0.88088,0.199673 l -1.36032,1.249891 c -0.0762,0.06985 -0.0981,0.179917 -0.055,0.273403 0.0293,0.06315 0.0819,0.108303 0.14852,0.128058 0.0667,0.01905 0.13547,0.0095 0.19403,-0.02787 l 0.79128,-0.506589 c 0.17251,-0.110419 0.369,-0.165453 0.5655,-0.165453 z m 3.14396,2.128661 c -0.254,0 -0.50483,-0.07444 -0.72284,-0.219075 l -2.07751,-1.378655 c -0.20532,-0.13582 -0.47167,-0.137936 -0.67839,-0.0056 l -0.79164,0.506589 c -0.16192,0.103364 -0.36054,0.132292 -0.54433,0.07796 -0.18451,-0.05362 -0.33585,-0.184503 -0.41663,-0.359128 -0.12101,-0.262819 -0.0596,-0.571147 0.15381,-0.766938 l 1.36031,-1.249892 c 0.34748,-0.319264 0.84349,-0.4318 1.2954,-0.293864 l 1.0421,0.318911 c 0.23495,0.07197 0.48437,0.07514 0.72073,0.0095 l 0.43427,-0.121008 c 0.0547,-0.01482 0.11324,-0.0078 0.16298,0.02011 0.0494,0.02822 0.0854,0.07514 0.10019,0.129822 l 0.79234,2.917472 c 0.03,0.110772 -0.0325,0.225072 -0.14182,0.259645 l -0.2921,0.09243 c -0.13017,0.04163 -0.26423,0.06174 -0.39687,0.06174"
         style="fill:#000000;fill-opacity:1;fill-rule:nonzero;stroke:none;stroke-width:0.03527778"
         id="path62"
         inkscape:connector-curvature="0" />
      <path
         d="m 128.82172,67.653495 c -0.0303,0 -0.061,-0.0064 -0.0903,-0.02011 l -0.97014,-0.453672 c -0.10266,-0.04833 -0.14993,-0.168275 -0.10759,-0.273403 l 1.08655,-2.698397 c 0.037,-0.09172 0.13265,-0.14605 0.22966,-0.131586 l 0.73836,0.109008 c 0.18486,0.02716 0.37536,0.0078 0.55069,-0.05574 l 1.53952,-0.560917 c 0.21308,-0.07761 0.44627,-0.07373 0.65687,0.01094 l 0.58632,0.236009 c 0.10936,0.0441 0.16263,0.168628 0.11853,0.277989 -0.0444,0.109714 -0.16827,0.16263 -0.27799,0.118533 l -0.58631,-0.235656 c -0.11254,-0.04551 -0.23707,-0.04763 -0.35102,-0.006 l -1.53952,0.560564 c -0.242,0.08819 -0.50447,0.114653 -0.75953,0.07726 l -0.57185,-0.08467 -0.94827,2.354439 0.7867,0.367947 c 0.10689,0.05009 0.1531,0.177094 0.10301,0.284339 -0.036,0.07761 -0.11324,0.123119 -0.19368,0.123119"
         style="fill:#000000;fill-opacity:1;fill-rule:nonzero;stroke:none;stroke-width:0.03527778"
         id="path64"
         inkscape:connector-curvature="0" />
      <path
         d="m 129.33043,67.246037 c -0.0116,0 -0.024,0.0014 -0.036,0.0032 -0.0554,0.0095 -0.10443,0.04022 -0.13688,0.08643 l -0.27058,0.382053 c -0.0674,0.09525 -0.0448,0.227542 0.0508,0.294922 0.0459,0.03246 0.10195,0.04551 0.15769,0.03598 0.0557,-0.0095 0.10442,-0.04057 0.13688,-0.08643 l 0.27058,-0.382058 c 0.0674,-0.09525 0.0448,-0.227542 -0.0504,-0.294923 -0.0363,-0.02575 -0.0787,-0.03916 -0.12206,-0.03916 z m -0.27199,1.232958 c -0.13124,0 -0.25894,-0.04022 -0.36795,-0.117827 -0.28751,-0.203553 -0.3556,-0.602898 -0.1524,-0.890764 l 0.27058,-0.381706 c 0.0984,-0.139347 0.24553,-0.231775 0.41381,-0.261055 0.16827,-0.02822 0.33761,0.0099 0.47695,0.108655 0.28752,0.203553 0.35596,0.60325 0.1524,0.890764 l -0.27022,0.382058 c -0.0988,0.139348 -0.24589,0.232128 -0.41417,0.260703 -0.0363,0.006 -0.073,0.0092 -0.109,0.0092"
         style="fill:#000000;fill-opacity:1;fill-rule:nonzero;stroke:none;stroke-width:0.03527778"
         id="path66"
         inkscape:connector-curvature="0" />
      <path
         d="m 130.45614,67.140909 c -0.0716,0 -0.14217,0.03351 -0.18662,0.09631 l -0.81315,1.148292 c -0.0727,0.103011 -0.0483,0.245886 0.0547,0.318911 0.10266,0.07267 0.24553,0.04798 0.31856,-0.05468 l 0.8128,-1.148291 c 0.073,-0.103011 0.0487,-0.245886 -0.0543,-0.318911 -0.0402,-0.02822 -0.0861,-0.04163 -0.13194,-0.04163 z m -0.81421,2.032353 c -0.13088,0 -0.26317,-0.03881 -0.37818,-0.119944 -0.29527,-0.209198 -0.36512,-0.619478 -0.15628,-0.9144 l 0.81316,-1.148645 c 0.20813,-0.295275 0.61877,-0.36583 0.9144,-0.156633 0.29527,0.209197 0.36547,0.619478 0.15628,0.914753 l -0.8128,1.148291 c -0.12771,0.180622 -0.33056,0.276578 -0.53658,0.276578"
         style="fill:#000000;fill-opacity:1;fill-rule:nonzero;stroke:none;stroke-width:0.03527778"
         id="path68"
         inkscape:connector-curvature="0" />
      <path
         d="m 131.13806,67.709234 c -0.013,0 -0.0261,0.0011 -0.0392,0.0032 -0.06,0.01023 -0.11253,0.04339 -0.14816,0.09349 l -0.57962,0.81915 c -0.0356,0.04974 -0.0494,0.11042 -0.0388,0.170745 0.01,0.05997 0.0434,0.112536 0.0931,0.148166 0.10266,0.07232 0.24589,0.04798 0.31891,-0.05468 l 0.57962,-0.81915 c 0.0353,-0.0501 0.049,-0.110425 0.0388,-0.17075 -0.0102,-0.06033 -0.0434,-0.112888 -0.0931,-0.148166 -0.0392,-0.02752 -0.0847,-0.04198 -0.13159,-0.04198 z m -0.58138,1.703564 c -0.13123,0 -0.26317,-0.03916 -0.37817,-0.120297 -0.29528,-0.208845 -0.36548,-0.619125 -0.15628,-0.9144 l 0.57961,-0.81915 c 0.2092,-0.295275 0.61948,-0.365478 0.91475,-0.156633 0.14288,0.101247 0.23777,0.252236 0.26741,0.425097 0.0296,0.172508 -0.01,0.346428 -0.11113,0.489303 l -0.57996,0.81915 c -0.12736,0.180622 -0.33056,0.27693 -0.53623,0.27693"
         style="fill:#000000;fill-opacity:1;fill-rule:nonzero;stroke:none;stroke-width:0.03527778"
         id="path70"
         inkscape:connector-curvature="0" />
      <path
         d="m 131.81293,68.300137 c -0.0141,0 -0.0282,0.0011 -0.042,0.0035 -0.0649,0.01093 -0.1217,0.04692 -0.1598,0.100542 l -0.4565,0.644878 c -0.0783,0.110772 -0.0522,0.264936 0.0589,0.343252 0.054,0.03845 0.11959,0.05362 0.18379,0.04198 0.0649,-0.01094 0.12171,-0.04692 0.15981,-0.100541 l 0.45614,-0.644529 c 0.0385,-0.05398 0.0533,-0.119239 0.042,-0.18415 -0.0109,-0.06491 -0.0466,-0.121708 -0.10054,-0.159808 -0.042,-0.02963 -0.0914,-0.04516 -0.14181,-0.04515 z m -0.45826,1.565275 c -0.13829,0 -0.27305,-0.04233 -0.38806,-0.124178 -0.30339,-0.214489 -0.37535,-0.636058 -0.16087,-0.939447 l 0.4565,-0.644525 c 0.10407,-0.147108 0.25894,-0.244828 0.43639,-0.274814 0.17815,-0.03034 0.3563,0.01023 0.50306,0.113947 0.1471,0.10407 0.24447,0.259292 0.27516,0.436739 0.0303,0.177447 -0.0106,0.355953 -0.1143,0.503061 l -0.45649,0.644525 c -0.10407,0.147109 -0.25894,0.244828 -0.43639,0.275167 -0.0385,0.0063 -0.0769,0.0095 -0.115,0.0095"
         style="fill:#000000;fill-opacity:1;fill-rule:nonzero;stroke:none;stroke-width:0.03527778"
         id="path72"
         inkscape:connector-curvature="0" />
      <path
         d="m 133.24168,69.629051 c -0.0723,0 -0.14535,-0.01517 -0.21485,-0.04692 l -1.00894,-0.460375 c -0.10725,-0.04868 -0.15487,-0.175683 -0.10548,-0.282927 0.0487,-0.10795 0.17603,-0.15487 0.28293,-0.105834 l 1.00894,0.460375 c 0.0402,0.01834 0.0871,0.0053 0.11218,-0.03034 0.0205,-0.02928 0.0173,-0.05856 0.0141,-0.07338 -0.004,-0.01482 -0.0141,-0.04198 -0.0452,-0.05891 l -0.56162,-0.301624 c -0.10372,-0.05609 -0.14253,-0.185561 -0.0868,-0.289631 0.0557,-0.103716 0.18521,-0.143228 0.28963,-0.08714 l 0.56092,0.301625 c 0.13018,0.0702 0.22472,0.19297 0.25894,0.336903 0.0342,0.143933 0.005,0.29598 -0.0801,0.417336 -0.0995,0.142169 -0.25965,0.220839 -0.42475,0.220839"
         style="fill:#000000;fill-opacity:1;fill-rule:nonzero;stroke:none;stroke-width:0.03527778"
         id="path74"
         inkscape:connector-curvature="0" />
      <path
         d="m 134.04671,69.330954 c -0.0896,0 -0.18097,-0.02011 -0.2674,-0.06244 l -0.55351,-0.269875 c -0.10583,-0.05151 -0.14993,-0.179564 -0.0984,-0.28575 0.0519,-0.106186 0.17921,-0.150636 0.2861,-0.09842 l 0.55315,0.269875 c 0.0797,0.03951 0.17463,0.01411 0.22508,-0.05927 0.0286,-0.04127 0.0381,-0.09102 0.0272,-0.140053 -0.0109,-0.04868 -0.0409,-0.08996 -0.0847,-0.115005 l -1.62771,-0.945444 c -0.10231,-0.05927 -0.13688,-0.190148 -0.0776,-0.2921 0.0593,-0.101953 0.19014,-0.136525 0.2921,-0.07761 l 1.62806,0.945444 c 0.1457,0.08467 0.25012,0.227189 0.28681,0.39123 0.037,0.164042 0.004,0.337609 -0.0921,0.47625 -0.11677,0.169687 -0.30374,0.263173 -0.49707,0.263173"
         style="fill:#000000;fill-opacity:1;fill-rule:nonzero;stroke:none;stroke-width:0.03527778"
         id="path76"
         inkscape:connector-curvature="0" />
      <path
         d="m 134.61857,68.758395 c -0.11042,0 -0.21943,-0.02928 -0.3175,-0.08678 l -1.27671,-0.746125 c -0.10195,-0.05962 -0.13617,-0.1905 -0.0765,-0.292453 0.0596,-0.101952 0.1905,-0.136525 0.29245,-0.07655 l 1.27635,0.746125 c 0.048,0.02822 0.10407,0.03528 0.15734,0.02081 0.0533,-0.01482 0.0977,-0.04974 0.12418,-0.09842 0.0526,-0.0956 0.0212,-0.215194 -0.072,-0.271992 l -1.59773,-0.980016 c -0.10054,-0.06209 -0.13194,-0.193675 -0.0702,-0.294217 0.0617,-0.100542 0.19368,-0.131586 0.29386,-0.0702 l 1.59774,0.980017 c 0.28751,0.176389 0.38558,0.546805 0.22295,0.842433 -0.0829,0.150636 -0.21978,0.258586 -0.38523,0.304447 -0.0561,0.01517 -0.11289,0.02293 -0.16898,0.02293"
         style="fill:#000000;fill-opacity:1;fill-rule:nonzero;stroke:none;stroke-width:0.03527778"
         id="path78"
         inkscape:connector-curvature="0" />
      <path
         d="m 135.25815,68.16467 c -0.13723,0 -0.27164,-0.03881 -0.39087,-0.113947 l -0.62583,-0.395464 c -0.0998,-0.06279 -0.12982,-0.195086 -0.0667,-0.294569 0.0628,-0.09984 0.19509,-0.129822 0.29492,-0.06668 l 0.62583,0.395111 c 0.0716,0.04516 0.15628,0.05856 0.23742,0.03881 0.0819,-0.02011 0.15064,-0.07126 0.19297,-0.143934 0.0822,-0.140758 0.0406,-0.321733 -0.0956,-0.412044 l -1.12219,-0.744714 c -0.0984,-0.06526 -0.12523,-0.197908 -0.06,-0.296333 0.0653,-0.09807 0.19791,-0.125589 0.29633,-0.05962 l 1.12219,0.744714 c 0.32455,0.215194 0.42474,0.647347 0.22825,0.983897 -0.10125,0.173567 -0.26494,0.295628 -0.46038,0.343253 -0.0586,0.01447 -0.11783,0.02152 -0.17639,0.02152"
         style="fill:#000000;fill-opacity:1;fill-rule:nonzero;stroke:none;stroke-width:0.03527778"
         id="path80"
         inkscape:connector-curvature="0" />
      <path
         d="m 126.3618,66.667834 1.19627,0.460023 0.0977,-0.226484 1.08444,-2.693458 c 0.001,-0.0028 0.11218,-0.267053 0.11218,-0.267053 l -1.26647,-0.452261 z m 1.31093,0.947209 c -0.0254,0 -0.0515,-0.0049 -0.0766,-0.01447 l -1.58714,-0.610305 c -0.0529,-0.02046 -0.0956,-0.06103 -0.11889,-0.112889 -0.0229,-0.05186 -0.0243,-0.110772 -0.004,-0.163689 l 1.37548,-3.572933 c 0.0416,-0.108656 0.16228,-0.163689 0.27129,-0.124531 l 1.67569,0.597606 c 0.055,0.01976 0.0998,0.06138 0.12382,0.115006 0.0236,0.05362 0.024,0.115005 0.001,0.16898 l -0.19755,0.470958 -1.0862,2.696987 -0.18098,0.420158 c -0.0346,0.08043 -0.11359,0.129117 -0.19649,0.129117"
         style="fill:#000000;fill-opacity:1;fill-rule:nonzero;stroke:none;stroke-width:0.03527778"
         id="path82"
         inkscape:connector-curvature="0" />
    </g>
  </g>
</svg>
