<?xml version="1.0" encoding="UTF-8" standalone="no"?>
<svg
   xmlns:dc="http://purl.org/dc/elements/1.1/"
   xmlns:cc="http://creativecommons.org/ns#"
   xmlns:rdf="http://www.w3.org/1999/02/22-rdf-syntax-ns#"
   xmlns:svg="http://www.w3.org/2000/svg"
   xmlns="http://www.w3.org/2000/svg"
   version="1.1"
   id="svg4440"
   viewBox="0 0 708.66142 177.16536"
   height="50mm"
   width="200mm">
  <defs
     id="defs4442" />
  <metadata
     id="metadata4445">
    <rdf:RDF>
      <cc:Work
         rdf:about="">
        <dc:format>image/svg+xml</dc:format>
        <dc:type
           rdf:resource="http://purl.org/dc/dcmitype/StillImage" />
        <dc:title></dc:title>
      </cc:Work>
    </rdf:RDF>
  </metadata>
  <g
     transform="translate(0,-875.19685)"
     id="layer1">
    <path
       d="m 320.91779,925.21738 c -1.04643,-0.67934 -5.38831,-2.94943 -10.49812,-2.94943 -6.78918,0 -9.45168,1.59075 -9.45168,3.85662 0,1.51059 2.17304,2.5739 4.76382,3.70473 4.68786,2.11819 13.50663,4.83977 13.50663,10.89053 0,0.45149 -0.0719,0.97893 -0.13909,1.51058 -1.67935,7.78499 -7.41787,13.00029 -20.30002,13.00029 -8.8905,0 -14.62902,-2.11818 -15.81893,-2.9452 l 1.54013,-7.78921 c 1.8186,1.21099 6.5782,3.17729 11.05932,3.17729 6.36723,0 9.86941,-1.59075 9.86941,-3.93258 0,-1.51059 -2.16882,-2.79754 -4.61614,-3.85663 -4.6963,-1.96628 -13.23235,-4.53175 -13.23235,-11.1859 0,-0.53165 0,-1.13505 0.14345,-1.74266 1.53591,-7.55712 8.6753,-12.24499 19.66289,-12.24499 8.68374,0 14.28303,2.41777 15.05097,2.94942 l -1.54011,7.55714 z"
       style="fill:#177d35;fill-opacity:1;fill-rule:nonzero;stroke:none"
       id="path4170" />
    <path
       d="m 350.80582,923.55702 -9.45168,0 -3.56971,18.29156 c -0.13942,0.6076 -0.20692,1.21098 -0.20692,1.74264 0,2.56968 1.46838,3.77646 4.47689,3.77646 0.56119,0 3.78068,-0.52744 5.10982,-1.05488 l -1.61185,8.01283 c -1.67937,0.37554 -6.78919,0.83126 -9.30401,0.83126 -7.98329,0 -12.1817,-2.87349 -12.1817,-8.31665 0,-0.83125 0.0716,-1.73843 0.27848,-2.64563 l 7.42211,-37.64641 12.94965,0 -1.82282,9.07193 9.5192,0 -1.60764,7.93689 z"
       style="fill:#177d35;fill-opacity:1;fill-rule:nonzero;stroke:none"
       id="path4174" />
    <path
       d="m 389.37208,951.98213 c -3.00852,1.0591 -10.56986,3.24902 -20.08906,3.24902 -10.9876,0 -16.6586,-4.38408 -16.6586,-14.13535 0,-2.11818 0.2785,-4.46423 0.76795,-7.10564 2.38402,-12.32517 10.21963,-19.27891 24.29167,-19.27891 9.37996,0 17.14807,2.64563 18.40971,3.17307 l -6.72167,34.09781 z m -13.43912,-29.40572 c -2.3798,0 -4.33764,0.97892 -5.81026,2.94521 -2.45153,3.24901 -4.12667,10.35888 -4.12667,15.04253 0,4.61192 1.54012,6.88201 4.96635,6.88201 2.87348,0 5.94951,-0.83123 6.58243,-1.28695 l 4.40516,-22.22411 c -0.48946,-0.37977 -2.86505,-1.35869 -6.01701,-1.35869"
       style="fill:#177d35;fill-opacity:1;fill-rule:nonzero;stroke:none"
       id="path4178" />
    <path
       d="m 434.65871,951.98213 c -3.00849,1.0591 -10.56984,3.24902 -20.08906,3.24902 -10.92428,0 -16.65859,-4.30812 -16.65859,-14.13535 0,-2.11818 0.20693,-4.46423 0.76795,-7.10564 2.52328,-12.62475 9.86941,-19.27891 19.73884,-19.27891 4.96635,0 9.24072,1.35869 10.22385,2.03803 l 3.35451,-17.08478 12.94966,0 -10.28716,52.31763 z m -13.4391,-29.40572 c -4.55285,0 -7.63308,3.77645 -9.17322,11.41375 -0.48945,2.56968 -0.76794,4.75961 -0.76794,6.57399 0,4.61192 1.54012,6.88201 4.97058,6.88201 2.86926,0 5.94949,-0.83123 6.5782,-1.28695 l 4.34188,-22.07222 c -0.62871,-0.37976 -3.43046,-1.51058 -5.9495,-1.51058"
       style="fill:#177d35;fill-opacity:1;fill-rule:nonzero;stroke:none"
       id="path4182" />
    <path
       d="m 469.86457,923.55702 -9.45169,0 -3.5697,18.29156 c -0.13908,0.6076 -0.20693,1.21098 -0.20693,1.74264 0,2.56968 1.4684,3.77646 4.4769,3.77646 0.56119,0 3.77645,-0.52744 5.10981,-1.05488 l -1.60763,8.01283 c -1.68358,0.37554 -6.78918,0.83126 -9.30822,0.83126 -7.9833,0 -12.18171,-2.87349 -12.18171,-8.31665 0,-0.83125 0.0716,-1.73843 0.2785,-2.64563 l 7.42209,-37.64641 12.94966,0 -1.82282,9.07193 9.51919,0 -1.60762,7.93689 z"
       style="fill:#177d35;fill-opacity:1;fill-rule:nonzero;stroke:none"
       id="path4186" />
    <path
       d="m 523.61891,954.32391 -15.88643,0 -1.47261,-30.61671 -12.87792,30.61671 -15.89066,0 -3.14774,-38.7055 13.01717,0 0.63292,29.71375 12.59522,-29.71375 15.19442,0 1.81861,29.71375 11.54878,-29.71375 12.87793,0 -18.40969,38.7055 z"
       style="fill:#177d35;fill-opacity:1;fill-rule:nonzero;stroke:none"
       id="path4190" />
    <path
       d="m 551.68411,938.14678 c -0.13907,0.75529 -0.21098,1.43885 -0.21098,2.11819 0,4.76382 2.80176,7.56135 9.86941,7.56135 4.27014,0 10.57407,-2.19415 11.97074,-3.40513 l -1.54011,7.86092 c -1.53591,0.83125 -7.69638,2.94944 -16.79785,2.94944 -11.33781,0 -16.0299,-4.83556 -16.0299,-14.21128 0,-16.55734 10.35889,-26.30861 24.70941,-26.30861 10.29137,0 15.54045,4.15621 15.54045,9.37573 0,0.45149 -0.0719,0.98315 -0.13909,1.51059 -1.54011,7.93689 -11.62051,12.5488 -27.37192,12.5488 m 15.05097,-13.30409 c 0,-1.89035 -1.4726,-3.10133 -4.82711,-3.10133 -3.92413,0 -7.56135,3.47686 -8.96223,9.97912 8.67952,0 13.02139,-2.79753 13.72183,-6.1225 0.0675,-0.22786 0.0675,-0.52744 0.0675,-0.75529"
       style="fill:#177d35;fill-opacity:1;fill-rule:nonzero;stroke:none"
       id="path4202" />
    <path
       d="m 610.20142,923.25406 c -0.62871,-0.22785 -3.2237,-0.45571 -4.06338,-0.45571 -2.58656,0 -6.85669,0.75951 -8.32508,1.36291 l -5.95372,30.161 -12.94965,0 7.21536,-36.51136 c 1.67935,-0.60339 10.49811,-3.09711 19.66709,-3.09711 1.25741,0 5.17734,0.22346 6.01702,0.52744 l -1.60764,8.01283 z"
       style="fill:#177d35;fill-opacity:1;fill-rule:nonzero;stroke:none"
       id="path4206" />
    <path
       d="m 621.25821,954.32391 -12.94966,0 10.77662,-54.65944 12.94966,0 -10.77662,54.65944 z m 16.93708,-20.33378 11.75976,20.33378 -15.60795,0 -9.02972,-20.33378 15.40118,-18.37172 15.04675,0 -17.57002,18.37172 z"
       style="fill:#177d35;fill-opacity:1;fill-rule:nonzero;stroke:none"
       id="path4210" />
    <path
       d="m 665.77568,938.14678 c -0.13906,0.75529 -0.21501,1.43885 -0.21501,2.11819 0,4.76382 2.80174,7.56135 9.87363,7.56135 4.27013,0 10.56985,-2.19415 11.96651,-3.40513 l -1.54013,7.86092 c -1.54011,0.83125 -7.69637,2.94944 -16.79783,2.94944 -11.33781,0 -16.02989,-4.83556 -16.02989,-14.21128 0,-16.55734 10.35888,-26.30861 24.70941,-26.30861 10.29136,0 15.54042,4.15621 15.54042,9.37573 0,0.45149 -0.0675,0.98315 -0.14345,1.51059 -1.5359,7.93689 -11.6163,12.5488 -27.36348,12.5488 m 15.04253,-13.30409 c 0,-1.89035 -1.46839,-3.10133 -4.82712,-3.10133 -3.9157,0 -7.55712,3.47686 -8.958,9.97912 8.68374,0 13.02138,-2.79753 13.72182,-6.1225 0.0635,-0.22786 0.0635,-0.52744 0.0635,-0.75529"
       style="fill:#177d35;fill-opacity:1;fill-rule:nonzero;stroke:none"
       id="path4222" />
    <path
       d="m 301.8798,974.79063 c -0.2785,-0.076 -2.44731,-0.75529 -3.64144,-0.75529 -3.9157,0 -6.15625,1.8144 -6.92419,5.29126 l -0.84391,3.92836 9.38418,0 -1.61608,7.9411 -9.30822,0 -6.02123,30.76874 -12.94543,0 8.67952,-44.22473 c 1.46839,-7.56135 7.41788,-11.34202 17.77677,-11.34202 3.15197,0 6.58241,0.60338 7.00015,0.67933 l -1.54012,7.71325 z m 7.35037,47.17417 -12.87792,0 10.7091,-54.65956 12.94544,0 -10.77662,54.65956 z"
       style="fill:#177d35;fill-opacity:1;fill-rule:nonzero;stroke:none"
       id="path4226" />
    <path
       d="m 330.92685,1005.7829 c -0.1394,0.7595 -0.21096,1.4346 -0.21096,2.1224 0,4.7555 2.80175,7.5571 9.86942,7.5571 4.27014,0 10.57407,-2.1942 11.97072,-3.4051 l -1.54012,7.8608 c -1.54011,0.8356 -7.70059,2.9496 -16.79783,2.9496 -11.34204,0 -16.02989,-4.8355 -16.02989,-14.2113 0,-16.55314 10.35887,-26.30864 24.70941,-26.30864 10.28714,0 15.54042,4.16043 15.54042,9.37151 0,0.45994 -0.076,0.98738 -0.14347,1.5148 -1.54011,7.93693 -11.61628,12.54883 -27.3677,12.54883 m 15.04676,-13.30411 c 0,-1.89033 -1.46839,-3.09711 -4.82712,-3.09711 -3.91991,0 -7.55711,3.47687 -8.95799,9.9749 8.67952,0 13.01716,-2.79753 13.7176,-6.12251 0.0674,-0.22784 0.0674,-0.52742 0.0674,-0.75528"
       style="fill:#177d35;fill-opacity:1;fill-rule:nonzero;stroke:none"
       id="path4230" />
    <path
       d="m 395.95112,1021.9634 -12.94966,0 4.48112,-22.90344 c 0.27849,-1.43883 0.41773,-2.72579 0.41773,-3.78067 0,-3.32919 -1.46839,-4.83977 -4.54862,-4.83977 -2.45152,0 -5.38831,0.7553 -6.29972,1.20678 l -5.9495,30.3171 -12.94965,0 7.1394,-36.43538 c 2.16882,-0.91142 10.78082,-3.1815 20.02154,-3.1815 9.79768,0 16.16913,3.32918 16.16913,10.13102 0,0.83547 -0.14345,1.66249 -0.28288,2.56968 l -5.24906,26.91618 z"
       style="fill:#177d35;fill-opacity:1;fill-rule:nonzero;stroke:none"
       id="path4234" />
    <path
       d="m 439.90777,992.85855 c -1.05065,-0.67934 -5.3925,-2.94944 -10.50234,-2.94944 -6.78496,0 -9.44746,1.58653 -9.44746,3.8524 0,1.5148 2.16882,2.5739 4.7596,3.70473 4.68786,2.11819 13.51085,4.83986 13.51085,10.88636 0,0.4599 -0.0719,0.9832 -0.13941,1.5148 -1.67936,7.7891 -7.42211,13.0003 -20.30004,13.0003 -8.89049,0 -14.62901,-2.114 -15.81891,-2.9496 l 1.54011,-7.7807 c 1.81862,1.2069 6.57822,3.1731 11.05511,3.1731 6.37145,0 9.87363,-1.5865 9.87363,-3.9283 0,-1.5148 -2.16883,-2.8018 -4.62035,-3.8567 -4.69209,-1.9662 -13.23236,-4.5359 -13.23236,-11.19009 0,-0.52744 0,-1.13505 0.14346,-1.73843 1.54011,-7.56135 8.67531,-12.24922 19.6671,-12.24922 8.68374,0 14.2788,2.41778 15.05098,2.94943 l -1.54012,7.56136 z"
       style="fill:#177d35;fill-opacity:1;fill-rule:nonzero;stroke:none"
       id="path4238" />
    <path
       d="m 460.2728,1022.8681 c -8.11834,0 -16.0299,-1.9663 -18.40547,-3.249 l 10.28713,-52.31343 12.94967,0 -3.43047,17.08054 c 1.67937,-0.75105 6.85669,-2.03801 11.12683,-2.03801 7.48962,0 12.67117,5.14358 12.67117,13.90749 0,1.6667 -0.21098,3.48108 -0.55697,5.37151 -2.86927,15.2702 -10.15213,21.2409 -24.64189,21.2409 m 11.83147,-26.53224 c 0,-4.15621 -1.82282,-6.1225 -5.18154,-6.1225 -2.86926,0 -6.08875,1.35868 -6.64993,1.58653 l -4.33767,22.07641 c 0.35023,0.2954 3.08025,1.2026 6.02124,1.2026 4.89463,0 7.76811,-3.6963 9.58671,-13.4517 0.35021,-2.04232 0.56119,-3.85671 0.56119,-5.29134"
       style="fill:#177d35;fill-opacity:1;fill-rule:nonzero;stroke:none"
       id="path4242" />
    <path
       d="m 524.24677,1019.9199 c -2.09708,0.6836 -10.84412,2.9495 -19.80635,2.9495 -10.15212,0 -15.96237,-3.6288 -15.96237,-10.2071 0,-0.7552 0.0719,-1.5865 0.27847,-2.4937 l 5.32503,-26.91196 12.94542,0 -4.2659,21.54486 c -0.42197,1.8903 -0.56121,3.5528 -0.56121,4.8397 0,3.4769 1.05067,5.2153 4.19841,5.2153 2.80175,0 5.53178,-0.9072 6.08875,-1.1308 l 6.02123,-30.46906 12.94966,0 -7.21114,36.66326 z"
       style="fill:#177d35;fill-opacity:1;fill-rule:nonzero;stroke:none"
       id="path4246" />
    <path
       d="m 562.11303,990.89354 c -0.62871,-0.22785 -3.21526,-0.45571 -4.05917,-0.45571 -2.59077,0 -6.86091,0.7553 -8.32929,1.36291 l -5.94949,30.16096 -12.94966,0 7.21113,-36.51132 c 1.67936,-0.6076 10.49811,-3.10134 19.6671,-3.10134 1.25741,0 5.18155,0.22786 6.02123,0.52744 l -1.61185,8.01706 z"
       style="fill:#177d35;fill-opacity:1;fill-rule:nonzero;stroke:none"
       id="path4250" />
    <path
       d="m 596.62222,1021.8887 c -1.89033,9.3716 -6.78918,16.705 -22.95832,16.705 -9.02973,0 -14.91173,-2.0421 -16.44762,-2.8734 l 1.60341,-8.0128 c 1.61607,1.4345 6.86512,3.4009 11.553,3.4009 7.63308,0 11.97073,-3.1731 13.29988,-9.4475 l 0.48945,-2.3461 c -1.39664,0.9114 -6.43896,2.65 -11.68802,2.65 -7.7681,0 -12.10998,-4.8398 -12.10998,-13.7641 0,-1.9621 0.20693,-4.152 0.70044,-6.574 2.51905,-12.70072 10.43061,-19.27894 24.70941,-19.27894 8.95802,0 16.44762,2.41778 17.98775,3.25325 l -7.1394,36.28769 z m -12.94965,-31.67579 c -2.31229,0 -4.33766,0.98315 -5.81026,2.86927 -2.24056,2.79753 -4.05916,9.22392 -4.05916,14.13532 0,4.6162 1.74687,6.8821 5.10981,6.8821 2.65829,0 5.9495,-1.1351 6.58244,-1.5866 l 4.19417,-21.16504 c -0.55697,-0.3038 -2.79753,-1.13505 -6.017,-1.13505"
       style="fill:#177d35;fill-opacity:1;fill-rule:nonzero;stroke:none"
       id="path4254" />
    <path
       d="m 271.10065,919.21472 c 0.519,-2.64141 -1.09706,-4.8018 -3.59924,-4.8018 l -69.14077,0 c -2.49795,0 -4.96213,2.16039 -5.48536,4.8018 l -3.0971,15.77671 c -0.519,2.64141 1.10127,4.8018 3.59922,4.8018 l 69.14079,0 c 2.49795,0 4.96634,-2.16039 5.48534,-4.8018 l 3.09712,-15.77671 z"
       style="fill:#73c82c;fill-opacity:1;fill-rule:nonzero;stroke:none"
       id="path4258" />
    <path
       d="m 262.94985,960.0945 c 0.51901,-2.6414 -1.09707,-4.79757 -3.59923,-4.79757 l -147.04968,0 c -2.49795,0 -4.96636,2.15617 -5.48536,4.79757 l -3.10978,15.7725 c -0.51899,2.64564 1.09709,4.79758 3.59924,4.79758 l 147.04546,0 c 2.49795,0 4.96636,-2.15194 5.48537,-4.79758 l 3.11398,-15.7725 z"
       style="fill:#73c82c;fill-opacity:1;fill-rule:nonzero;stroke:none"
       id="path4262" />
    <path
       d="m 254.96779,1000.9709 c 0.52745,-2.63713 -1.08862,-4.79329 -3.59078,-4.79329 l -227.342612,0 c -2.497945,0 -4.970573,2.15616 -5.498015,4.79329 l -3.147739,15.781 c -0.527437,2.6414 1.084417,4.7934 3.58235,4.7934 l 227.351046,0 c 2.50216,0 4.97479,-2.152 5.50223,-4.7934 l 3.14352,-15.781 z"
       style="fill:#73c82c;fill-opacity:1;fill-rule:nonzero;stroke:none"
       id="path4266" />
  </g>
</svg>
